# xmcd
#
# Track frame offsets:
#	150
#	15345
#	27145
#	40260
#	51220
#	61307
#	74900
#	87255
#	101547
#	116012
#	129132
#	141335
#	156800
#	169095
#	180802
#	191367
#	204707
#	215962
#	231705
#	244345
#	258347
#	273592
#	286392
#	297720
#	311640
#
# Disc length: 4306
#
# Revision: 2
# Processed by: cddbd v1.5.1PL0 Copyright (c) Steve Scherf et al.
# Submitted via: CDWizzard Release:4.35
# Normalized: r1:DSETVAR1
#
DISCID=8210d019
DTITLE=Various Artist - Ragin Harlem Hit Parade #2
DYEAR=1900
DGENRE=
TTITLE0=Elmore James - It Hurts Me Too
TTITLE1=Upsetters - Jaywalkin'
TTITLE2=Gladys Knight and The Pips - Come See About Me
TTITLE3=Champion Jack Dupree - Shake Baby Shake
TTITLE4=Scarlets - Truly Yours
TTITLE5=Don Garner and Dee Dee Ford - Don't You Worry
TTITLE6=Jimmy Spruill - Kansas City March
TTITLE7=Vocaleers - Is It A Dream
TTITLE8=Bobby Marchan - All In My Mind
TTITLE9=Channels - Sad Song
TTITLE10=Lee Dorsey - People Gonna Talk
TTITLE11=Velvets - I
TTITLE12=Les Cooper - Let's Do The Boston Monkey
TTITLE13=Titus Turner - People Sure Act Funny
TTITLE14=Gladys Knight and The Pips - Operator
TTITLE15=Noble Watts - Jookin'
TTITLE16=Jackie and The Starlites - Valerie
TTITLE17=Elmore James - I Believe
TTITLE18=King Curtis - Twistin' With The King
TTITLE19=Scarlets - Dear One
TTITLE20=Billy Hambric - Human
TTITLE21=The Pips - Darling
TTITLE22=Rainbows - Mary Lee
TTITLE23=Little Joe Cook - These Lonely Tears
TTITLE24=Buster Brown - Madison Shuffle
EXTD=
EXTT0=
EXTT1=
EXTT2=
EXTT3=
EXTT4=
EXTT5=
EXTT6=
EXTT7=
EXTT8=
EXTT9=
EXTT10=
EXTT11=
EXTT12=
EXTT13=
EXTT14=
EXTT15=
EXTT16=
EXTT17=
EXTT18=
EXTT19=
EXTT20=
EXTT21=
EXTT22=
EXTT23=
EXTT24=
PLAYORDER=
